<?xml version="1.0" encoding="UTF-8" standalone="no"?>
<!-- Generator: Adobe Illustrator 15.0.2, SVG Export Plug-In . SVG Version: 6.00 Build 0)  -->

<svg
   xmlns:dc="http://purl.org/dc/elements/1.1/"
   xmlns:cc="http://creativecommons.org/ns#"
   xmlns:rdf="http://www.w3.org/1999/02/22-rdf-syntax-ns#"
   xmlns:svg="http://www.w3.org/2000/svg"
   xmlns="http://www.w3.org/2000/svg"
   xmlns:xlink="http://www.w3.org/1999/xlink"
   xmlns:sodipodi="http://sodipodi.sourceforge.net/DTD/sodipodi-0.dtd"
   xmlns:inkscape="http://www.inkscape.org/namespaces/inkscape"
   version="1.1"
   id="Ebene_1"
   x="0px"
   y="0px"
   width="32px"
   height="32px"
   viewBox="0 0 32 32"
   enable-background="new 0 0 32 32"
   xml:space="preserve"
   inkscape:version="0.48.2 r9819"
   sodipodi:docname="nme.svg"
   inkscape:export-filename="C:\Documents and Settings\Vinny\My Documents\NME\Infinity Stacker\assets\nme.png"
   inkscape:export-xdpi="90"
   inkscape:export-ydpi="90"><metadata
   id="metadata27"><rdf:RDF><cc:Work
       rdf:about=""><dc:format>image/svg+xml</dc:format><dc:type
         rdf:resource="http://purl.org/dc/dcmitype/StillImage" /><dc:title></dc:title></cc:Work></rdf:RDF></metadata><defs
   id="defs25"><filter
     color-interpolation-filters="sRGB"
     inkscape:collect="always"
     id="filter7348"
     x="-0.063706808"
     width="1.1274136"
     y="-1.0575995"
     height="3.1151993"><feGaussianBlur
       inkscape:collect="always"
       stdDeviation="11.916991"
       id="feGaussianBlur7350" /></filter><filter
     color-interpolation-filters="sRGB"
     inkscape:collect="always"
     id="filter7314"
     x="-0.06628108"
     width="1.1325622"
     y="-1.1974527"
     height="3.3949056"><feGaussianBlur
       inkscape:collect="always"
       stdDeviation="13.490254"
       id="feGaussianBlur7316" /></filter><linearGradient
     y2="357.98056"
     x2="400.65411"
     y1="259.00336"
     x1="389.76132"
     gradientUnits="userSpaceOnUse"
     id="linearGradient7589"
     xlink:href="#linearGradient7608"
     inkscape:collect="always" /><linearGradient
     id="linearGradient7608"
     inkscape:collect="always"><stop
       id="stop7610"
       offset="0"
       style="stop-color:#ffffff;stop-opacity:0.77560976" /><stop
       id="stop7612"
       offset="1"
       style="stop-color:#ffffff;stop-opacity:0" /></linearGradient><linearGradient
     inkscape:collect="always"
     xlink:href="#linearGradient7564"
     id="linearGradient7570"
     x1="418.52472"
     y1="253.90056"
     x2="400.65411"
     y2="357.98056"
     gradientUnits="userSpaceOnUse" /><linearGradient
     inkscape:collect="always"
     id="linearGradient7564"><stop
       style="stop-color:#ffffff;stop-opacity:1;"
       offset="0"
       id="stop7566" /><stop
       style="stop-color:#ffffff;stop-opacity:0"
       offset="1"
       id="stop7568" /></linearGradient><filter
     color-interpolation-filters="sRGB"
     inkscape:collect="always"
     id="filter7002"
     x="-0.014674381"
     width="1.0293489"
     y="-0.23159967"
     height="1.4631993"><feGaussianBlur
       inkscape:collect="always"
       stdDeviation="4.3717428"
       id="feGaussianBlur7004" /></filter><clipPath
     clipPathUnits="userSpaceOnUse"
     id="clipPath4144"><rect
       style="opacity:0.38116593;fill:#000000;fill-opacity:0.99215686;fill-rule:evenodd;stroke:none"
       id="rect4146"
       width="407.95425"
       height="525.5014"
       x="-218.91765"
       y="-317.58853" /></clipPath><clipPath
     clipPathUnits="userSpaceOnUse"
     id="clipPath4160"><rect
       style="opacity:0.38116593;fill:#000000;fill-opacity:0.99215686;fill-rule:evenodd;stroke:none"
       id="rect4162"
       width="407.95425"
       height="526.27881"
       x="-218.91765"
       y="-319.14328"
       ry="71.517944" /></clipPath></defs><sodipodi:namedview
   pagecolor="#ffffff"
   bordercolor="#666666"
   borderopacity="1"
   objecttolerance="10"
   gridtolerance="10"
   guidetolerance="10"
   inkscape:pageopacity="0"
   inkscape:pageshadow="2"
   inkscape:window-width="1680"
   inkscape:window-height="994"
   id="namedview23"
   showgrid="false"
   inkscape:zoom="14.75"
   inkscape:cx="19.093491"
   inkscape:cy="23.949757"
   inkscape:window-x="1676"
   inkscape:window-y="-4"
   inkscape:window-maximized="1"
   inkscape:current-layer="Ebene_1" />

<g
   id="g3285"
   transform="matrix(0.07990803,0,0,0.06166884,17.109762,19.46589)"
   clip-path="url(#clipPath4160)"><path
     inkscape:connector-curvature="0"
     id="path6920"
     d="m 231.27454,-188.25785 c -5.95781,-0.81506 -11.91484,-1.73696 -17.86892,-2.5 -15.07247,-1.93159 -30.15788,-3.66876 -45.20524,-5.25 -15.04736,-1.58124 -30.05933,-2.98092 -45.07985,-4.1875 -15.02051,-1.20658 -30.025212,-2.22365 -45.017142,-3.03125 -14.99193,-0.8076 -29.99285,-1.42818 -44.95445,-1.8125 -14.96161,-0.38432 -29.8995301,-0.53203 -44.82906,-0.46875 -14.92952,0.0633 -29.83929,0.33981 -44.735,0.875 -14.89572,0.53519 -29.78081,1.31234 -44.640958,2.34375 -14.86015,1.03141 -29.69271,2.32306 -44.51556,3.875 -14.82286,1.55194 -29.63771,3.37197 -44.42152,5.46875 -14.78382,2.09678 -29.52174,4.45907 -44.26478,7.125 -6.34173,1.14675 -12.66354,2.58847 -18.99749,3.84375 l 0,312.75 484.52997,0 0,-319.03125 z"
     style="fill:#00cae4;fill-opacity:1;fill-rule:evenodd;stroke:#0fc2ff;stroke-width:1.60253215;stroke-linecap:butt;stroke-linejoin:miter;stroke-miterlimit:4;stroke-opacity:1;stroke-dashoffset:0;display:inline" /><path
     inkscape:connector-curvature="0"
     id="rect6893"
     d="m -253.25543,-322.2266 0,140.25 c 6.3371,-1.25528 12.66205,-2.697 19.00692,-3.84375 14.75035,-2.66593 29.49559,-5.02822 44.28674,-7.125 14.79115,-2.09678 29.61335,-3.91681 44.44356,-5.46875 14.83021,-1.55194 29.67013,-2.84359 44.53766,-3.875 14.867518,-1.03141 29.759998,-1.80856 44.663108,-2.34375 14.90311,-0.53519 29.82028,-0.81172 44.75721,-0.875 14.9369299,-0.0633 29.88227,0.0844 44.8513,0.46875 14.96902,0.38432 29.97739,1.0049 44.97675,1.8125 14.99937,0.8076 30.011522,1.82467 45.039492,3.03125 15.02797,1.20658 30.04739,2.60626 45.10222,4.1875 15.05483,1.58124 30.14772,3.31841 45.22767,5.25 5.95704,0.76304 11.91702,1.68494 17.87779,2.5 l 0,-133.96875 -484.77042,0 z"
     style="fill:#000000;fill-opacity:1;fill-rule:evenodd;stroke:#000000;stroke-width:1.60292971;stroke-linecap:butt;stroke-linejoin:miter;stroke-miterlimit:4;stroke-opacity:1;stroke-dashoffset:0;display:inline" /><path
     transform="matrix(1.0213403,0,0,1,-253.04148,-324.2266)"
     inkscape:connector-curvature="0"
     id="path7016"
     d="M -10.025563,141.23038 C 152.08992,107.10605 316.81774,109.55441 482.98531,132.1591"
     style="fill:none;stroke:#000000;stroke-width:18;stroke-linecap:butt;stroke-linejoin:miter;stroke-miterlimit:4;stroke-opacity:1;stroke-dasharray:none;display:inline;filter:url(#filter7002)" /><path
     id="path7028-14-4"
     d="M 87.999999,65.000004 45.927902,60.862841 30.454657,100.20437 21.38834,58.912977 -20.809176,56.354248 15.659629,34.971925 5.0533752,-5.9509881 36.658654,22.125405 72.301144,-0.60761722 55.365475,38.126872 z"
     inkscape:transform-center-y="-0.11099917"
     inkscape:transform-center-x="-0.51328678"
     style="fill:#ffffff;fill-opacity:1;fill-rule:evenodd;stroke:#000000;stroke-width:0;stroke-linecap:butt;stroke-linejoin:miter;stroke-miterlimit:4;stroke-opacity:1;stroke-dashoffset:0;display:inline"
     transform="matrix(0.05971366,0.10247988,-0.10506757,0.0639007,193.95249,-246.70321)"
     inkscape:connector-curvature="0" /><path
     id="path7028-71-8"
     d="M 87.999999,65.000004 45.927902,60.862841 30.454657,100.20437 21.38834,58.912977 -20.809176,56.354248 15.659629,34.971925 5.0533752,-5.9509881 36.658654,22.125405 72.301144,-0.60761722 55.365475,38.126872 z"
     inkscape:transform-center-y="0.11018043"
     inkscape:transform-center-x="0.5559639"
     style="fill:#ffffff;fill-opacity:1;fill-rule:evenodd;stroke:#000000;stroke-width:0;stroke-linecap:butt;stroke-linejoin:miter;stroke-miterlimit:4;stroke-opacity:1;stroke-dashoffset:0;display:inline"
     transform="matrix(0.16268894,0,0,0.18144331,162.19971,-293.27601)"
     inkscape:connector-curvature="0" /><path
     id="path7028"
     d="M 87.999999,65.000004 45.927902,60.862841 30.454657,100.20437 21.38834,58.912977 -20.809176,56.354248 15.659629,34.971925 5.0533752,-5.9509881 36.658654,22.125405 72.301144,-0.60761722 55.365475,38.126872 z"
     inkscape:transform-center-y="-0.87888135"
     inkscape:transform-center-x="-0.47896615"
     style="fill:#ffffff;fill-opacity:1;fill-rule:evenodd;stroke:#000000;stroke-width:0;stroke-linecap:butt;stroke-linejoin:miter;stroke-miterlimit:4;stroke-opacity:1;stroke-dashoffset:0;display:inline"
     transform="matrix(0.08881525,0.07739855,-0.07935292,0.09504286,-22.295242,-254.85958)"
     inkscape:connector-curvature="0" /><path
     id="path7028-2"
     d="M 87.999999,65.000004 45.927902,60.862841 30.454657,100.20437 21.38834,58.912977 -20.809176,56.354248 15.659629,34.971925 5.0533752,-5.9509881 36.658654,22.125405 72.301144,-0.60761722 55.365475,38.126872 z"
     inkscape:transform-center-y="0.058696924"
     inkscape:transform-center-x="0.27330624"
     style="fill:#ffffff;fill-opacity:1;fill-rule:evenodd;stroke:#000000;stroke-width:0;stroke-linecap:butt;stroke-linejoin:miter;stroke-miterlimit:4;stroke-opacity:1;stroke-dashoffset:0;display:inline"
     transform="matrix(0.07997532,0,0,0.09666191,-76.069432,-291.41625)"
     inkscape:connector-curvature="0" /><path
     id="path7028-6"
     d="M 87.999999,65.000004 45.927902,60.862841 30.454657,100.20437 21.38834,58.912977 -20.809176,56.354248 15.659629,34.971925 5.0533752,-5.9509881 36.658654,22.125405 72.301144,-0.60761722 55.365475,38.126872 z"
     inkscape:transform-center-y="0.14029662"
     inkscape:transform-center-x="0.95411253"
     style="fill:#ffffff;fill-opacity:1;fill-rule:evenodd;stroke:#000000;stroke-width:0;stroke-linecap:butt;stroke-linejoin:miter;stroke-miterlimit:4;stroke-opacity:1;stroke-dashoffset:0;display:inline"
     transform="matrix(0.05297718,-0.10627553,0.10895906,0.05669187,36.078158,-238.99354)"
     inkscape:connector-curvature="0" /><path
     id="path7028-0"
     d="M 87.999999,65.000004 45.927902,60.862841 30.454657,100.20437 21.38834,58.912977 -20.809176,56.354248 15.659629,34.971925 5.0533752,-5.9509881 36.658654,22.125405 72.301144,-0.60761722 55.365475,38.126872 z"
     inkscape:transform-center-y="0.098740829"
     inkscape:transform-center-x="0.6501746"
     style="fill:#ffffff;fill-opacity:1;fill-rule:evenodd;stroke:#000000;stroke-width:0;stroke-linecap:butt;stroke-linejoin:miter;stroke-miterlimit:4;stroke-opacity:1;stroke-dashoffset:0;display:inline"
     transform="matrix(0.19026014,0,0,0.162603,27.461548,-300.7698)"
     inkscape:connector-curvature="0" /><path
     id="path7028-1"
     d="M 87.999999,65.000004 45.927902,60.862841 30.454657,100.20437 21.38834,58.912977 -20.809176,56.354248 15.659629,34.971925 5.0533752,-5.9509881 36.658654,22.125405 72.301144,-0.60761722 55.365475,38.126872 z"
     inkscape:transform-center-y="0.052977332"
     inkscape:transform-center-x="0.30470165"
     style="fill:#ffffff;fill-opacity:1;fill-rule:evenodd;stroke:#000000;stroke-width:0;stroke-linecap:butt;stroke-linejoin:miter;stroke-miterlimit:4;stroke-opacity:1;stroke-dashoffset:0;display:inline"
     transform="matrix(0.08916573,0,0,0.08724176,65.530888,-279.26377)"
     inkscape:connector-curvature="0" /><path
     id="path7028-65"
     d="M 87.999999,65.000004 45.927902,60.862841 30.454657,100.20437 21.38834,58.912977 -20.809176,56.354248 15.659629,34.971925 5.0533752,-5.9509881 36.658654,22.125405 72.301144,-0.60761722 55.365475,38.126872 z"
     inkscape:transform-center-y="0.4188182"
     inkscape:transform-center-x="-0.27070794"
     style="fill:#ffffff;fill-opacity:1;fill-rule:evenodd;stroke:#000000;stroke-width:0;stroke-linecap:butt;stroke-linejoin:miter;stroke-miterlimit:4;stroke-opacity:1;stroke-dashoffset:0;display:inline"
     transform="matrix(-0.00840276,-0.15573254,0.17929036,-0.00800768,-144.39362,-274.1152)"
     inkscape:connector-curvature="0" /><path
     id="path7028-7"
     d="M 87.999999,65.000004 45.927902,60.862841 30.454657,100.20437 21.38834,58.912977 -20.809176,56.354248 15.659629,34.971925 5.0533752,-5.9509881 36.658654,22.125405 72.301144,-0.60761722 55.365475,38.126872 z"
     inkscape:transform-center-y="0.5714533"
     inkscape:transform-center-x="0.61317475"
     style="fill:#ffffff;fill-opacity:1;fill-rule:evenodd;stroke:#000000;stroke-width:0;stroke-linecap:butt;stroke-linejoin:miter;stroke-miterlimit:4;stroke-opacity:1;stroke-dashoffset:0;display:inline"
     transform="matrix(0.03551158,-0.11361176,0.11648053,0.03800161,8.2535979,-261.65729)"
     inkscape:connector-curvature="0" /><path
     id="path7028-5"
     d="M 87.999999,65.000004 45.927902,60.862841 30.454657,100.20437 21.38834,58.912977 -20.809176,56.354248 15.659629,34.971925 5.0533752,-5.9509881 36.658654,22.125405 72.301144,-0.60761722 55.365475,38.126872 z"
     inkscape:transform-center-y="-1.0665252"
     inkscape:transform-center-x="0.020063128"
     style="fill:#ffffff;fill-opacity:1;fill-rule:evenodd;stroke:#000000;stroke-width:0;stroke-linecap:butt;stroke-linejoin:miter;stroke-miterlimit:4;stroke-opacity:1;stroke-dashoffset:0;display:inline"
     transform="matrix(0.10155982,0.05880567,-0.06029056,0.10868107,-58.389212,-249.53544)"
     inkscape:connector-curvature="0" /><path
     id="path7028-4"
     d="M 87.999999,65.000004 45.927902,60.862841 30.454657,100.20437 21.38834,58.912977 -20.809176,56.354248 15.659629,34.971925 5.0533752,-5.9509881 36.658654,22.125405 72.301144,-0.60761722 55.365475,38.126872 z"
     inkscape:transform-center-y="0.093022664"
     inkscape:transform-center-x="-0.097474447"
     style="fill:#ffffff;fill-opacity:1;fill-rule:evenodd;stroke:#000000;stroke-width:0;stroke-linecap:butt;stroke-linejoin:miter;stroke-miterlimit:4;stroke-opacity:1;stroke-dashoffset:0;display:inline"
     transform="matrix(0.02940658,0.07805515,-0.09910228,0.02541116,97.871778,-238.93058)"
     inkscape:connector-curvature="0" /><path
     id="path7028-12"
     d="M 87.999999,65.000004 45.927902,60.862841 30.454657,100.20437 21.38834,58.912977 -20.809176,56.354248 15.659629,34.971925 5.0533752,-5.9509881 36.658654,22.125405 72.301144,-0.60761722 55.365475,38.126872 z"
     inkscape:transform-center-y="-0.60878651"
     inkscape:transform-center-x="-0.78048939"
     style="fill:#ffffff;fill-opacity:1;fill-rule:evenodd;stroke:#000000;stroke-width:0;stroke-linecap:butt;stroke-linejoin:miter;stroke-miterlimit:4;stroke-opacity:1;stroke-dashoffset:0;display:inline"
     transform="matrix(0.07927332,0.08754779,-0.08975843,0.08483187,-101.07727,-279.48981)"
     inkscape:connector-curvature="0" /><path
     id="path7028-00"
     d="M 87.999999,65.000004 45.927902,60.862841 30.454657,100.20437 21.38834,58.912977 -20.809176,56.354248 15.659629,34.971925 5.0533752,-5.9509881 36.658654,22.125405 72.301144,-0.60761722 55.365475,38.126872 z"
     inkscape:transform-center-y="0.20896605"
     inkscape:transform-center-x="-0.52165899"
     style="fill:#ffffff;fill-opacity:1;fill-rule:evenodd;stroke:#000000;stroke-width:0;stroke-linecap:butt;stroke-linejoin:miter;stroke-miterlimit:4;stroke-opacity:1;stroke-dashoffset:0;display:inline"
     transform="matrix(-0.03738694,0.05888376,-0.05162419,-0.04678689,-119.55018,-255.79818)"
     inkscape:connector-curvature="0" /><path
     id="path7028-14"
     d="M 87.999999,65.000004 45.927902,60.862841 30.454657,100.20437 21.38834,58.912977 -20.809176,56.354248 15.659629,34.971925 5.0533752,-5.9509881 36.658654,22.125405 72.301144,-0.60761722 55.365475,38.126872 z"
     inkscape:transform-center-y="-0.076934881"
     inkscape:transform-center-x="-0.31723938"
     style="fill:#ffffff;fill-opacity:1;fill-rule:evenodd;stroke:#000000;stroke-width:0;stroke-linecap:butt;stroke-linejoin:miter;stroke-miterlimit:4;stroke-opacity:1;stroke-dashoffset:0;display:inline"
     transform="matrix(0.0369063,0.07103029,-0.0649375,0.0442905,-177.68959,-257.68437)"
     inkscape:connector-curvature="0" /><path
     id="path7028-60"
     d="M 87.999999,65.000004 45.927902,60.862841 30.454657,100.20437 21.38834,58.912977 -20.809176,56.354248 15.659629,34.971925 5.0533752,-5.9509881 36.658654,22.125405 72.301144,-0.60761722 55.365475,38.126872 z"
     inkscape:transform-center-y="0.12734256"
     inkscape:transform-center-x="0.55596106"
     style="fill:#ffffff;fill-opacity:1;fill-rule:evenodd;stroke:#000000;stroke-width:0;stroke-linecap:butt;stroke-linejoin:miter;stroke-miterlimit:4;stroke-opacity:1;stroke-dashoffset:0;display:inline"
     transform="matrix(0.16268894,0,0,0.20970378,-219.77459,-252.13404)"
     inkscape:connector-curvature="0" /><path
     id="path7028-71"
     d="M 87.999999,65.000004 45.927902,60.862841 30.454657,100.20437 21.38834,58.912977 -20.809176,56.354248 15.659629,34.971925 5.0533752,-5.9509881 36.658654,22.125405 72.301144,-0.60761722 55.365475,38.126872 z"
     inkscape:transform-center-y="0.075858776"
     inkscape:transform-center-x="0.39892776"
     style="fill:#ffffff;fill-opacity:1;fill-rule:evenodd;stroke:#000000;stroke-width:0;stroke-linecap:butt;stroke-linejoin:miter;stroke-miterlimit:4;stroke-opacity:1;stroke-dashoffset:0;display:inline"
     transform="matrix(0.11673693,0,0,0.12492238,-207.07198,-298.63575)"
     inkscape:connector-curvature="0" /><path
     id="path7028-773"
     d="M 87.999999,65.000004 45.927902,60.862841 30.454657,100.20437 21.38834,58.912977 -20.809176,56.354248 15.659629,34.971925 5.0533752,-5.9509881 36.658654,22.125405 72.301144,-0.60761722 55.365475,38.126872 z"
     inkscape:transform-center-y="-1.1141789"
     inkscape:transform-center-x="-0.041936197"
     style="fill:#ffffff;fill-opacity:1;fill-rule:evenodd;stroke:#000000;stroke-width:0;stroke-linecap:butt;stroke-linejoin:miter;stroke-miterlimit:4;stroke-opacity:1;stroke-dashoffset:0;display:inline"
     transform="matrix(0.10017583,0.06123338,-0.06277957,0.10720003,117.04223,-264.78104)"
     inkscape:connector-curvature="0" /><path
     id="path7028-3"
     d="M 87.999999,65.000004 45.927902,60.862841 30.454657,100.20437 21.38834,58.912977 -20.809176,56.354248 15.659629,34.971925 5.0533752,-5.9509881 36.658654,22.125405 72.301144,-0.60761722 55.365475,38.126872 z"
     inkscape:transform-center-y="0.075858358"
     inkscape:transform-center-x="0.39892854"
     style="fill:#ffffff;fill-opacity:1;fill-rule:evenodd;stroke:#000000;stroke-width:0;stroke-linecap:butt;stroke-linejoin:miter;stroke-miterlimit:4;stroke-opacity:1;stroke-dashoffset:0;display:inline"
     transform="matrix(0.11673693,0,0,0.12492238,112.70533,-303.56087)"
     inkscape:connector-curvature="0" /><path
     inkscape:connector-curvature="0"
     id="path6606"
     d="M 230.58833,-78.195355 C 80.788068,-42.300245 -27.661672,62.637755 -27.661672,186.55466 c 0,46.51941 15.29457,90.36151 42.3125,128.87738 l 215.937502,0 0,-393.627395 z"
     style="fill:#3f9b03;fill-opacity:1;stroke:#0a0a00;stroke-width:2.84720087;stroke-linecap:butt;stroke-linejoin:miter;stroke-miterlimit:4;stroke-opacity:1;stroke-dashoffset:0;display:inline" /><path
     inkscape:connector-curvature="0"
     id="path6568"
     d="m -253.69293,1.7421452 0,311.6068648 131.15626,0 c 42.583368,-32.58301 69.593748,-80.36419 69.593748,-133.77854 l -0.0312,-2.35335 C -54.431852,80.616695 -143.66301,2.9171552 -253.69293,1.7421452 z"
     style="fill:#3f9b03;fill-opacity:1;stroke:#0a0a00;stroke-width:2;stroke-linecap:butt;stroke-linejoin:miter;stroke-miterlimit:4;stroke-opacity:1;stroke-dasharray:none;stroke-dashoffset:0;display:inline" /><path
     id="path7562"
     d="m 611.64735,356.09662 c 0,58.7739 -94.34158,106.41957 -210.71782,106.41957 -116.37623,0 -210.71781,-47.64567 -210.71781,-106.41957 0,-58.77391 94.34158,-106.41957 210.71781,-106.41957 116.34511,0 210.67379,47.62113 210.71781,106.37931 l -210.71781,0.0403 z"
     style="opacity:0.35121951;fill:url(#linearGradient7570);fill-opacity:1;fill-rule:evenodd;stroke:none;display:inline"
     transform="matrix(0.86498362,-0.50180009,0.50180009,0.86498362,-351.35685,-48.626725)"
     inkscape:connector-curvature="0" /><path
     id="path7562-8"
     d="m 611.64735,356.09662 c 0,58.7739 -94.34158,106.41957 -210.71782,106.41957 -116.37623,0 -210.71781,-47.64567 -210.71781,-106.41957 0,-58.77391 94.34158,-106.41957 210.71781,-106.41957 116.34511,0 210.67379,47.62113 210.71781,106.37931 l -210.71781,0.0403 z"
     style="opacity:0.44878049;fill:url(#linearGradient7589);fill-opacity:1;fill-rule:evenodd;stroke:none;display:inline"
     transform="matrix(0.65163186,0.27853363,-0.20691572,0.87717541,-381.14206,-311.37978)"
     inkscape:connector-curvature="0" /><path
     inkscape:connector-curvature="0"
     id="path6609"
     d="m 230.58833,84.016945 c -50.08516,-9.73386 -105.2887,-15.24355 -163.414762,-15.24355 -130.08678,0 -245.885268,27.06021 -320.631798,69.149195 l 0,180.92503 484.04656,0 0,-234.830675 z"
     style="fill:#3f9b03;fill-opacity:1;stroke:#0a0a00;stroke-width:3.70900011;stroke-linecap:butt;stroke-linejoin:miter;stroke-miterlimit:4;stroke-opacity:1;stroke-dasharray:none;stroke-dashoffset:0;display:inline" /><g
     transform="matrix(1.2232292,0,0,1.2524723,-301.3712,-971.08042)"
     id="g3531"
     style="display:inline"><path
       style="fill:#000000;fill-opacity:0.99408288;stroke:none"
       d="m 166.75,401.25 1,-107 34.75,-26 4,-117.25 38.75,-25.5 33,20.75 25.75,14.75 -26.5,134 17.25,10 -18,86.5 z"
       id="path7614"
       inkscape:connector-curvature="0"
       transform="translate(0,412.36218)" /><path
       inkscape:connector-curvature="0"
       style="fill:#e4e400;fill-opacity:1;stroke:#0a0a00;stroke-width:1;stroke-linecap:butt;stroke-linejoin:miter;stroke-miterlimit:4;stroke-opacity:1;stroke-dashoffset:0"
       d="m 243.50686,587.96915 c 0,0 34.33851,-28.27789 34.33851,-28.27789 0,0 -6.90551,40.47246 -6.90551,40.47246 0,0 -32.88789,27.53097 -32.88789,27.53097 0,0 5.45489,-39.72554 5.45489,-39.72554"
       id="path6045" /><path
       inkscape:connector-curvature="0"
       style="fill:#e4e400;fill-opacity:1;stroke:#0a0a00;stroke-width:1;stroke-linecap:butt;stroke-linejoin:miter;stroke-miterlimit:4;stroke-opacity:1;stroke-dashoffset:0"
       d="m 265.43462,640.00758 c 0,0 30.6196,-26.05342 30.6196,-26.05342 0,0 -6.96624,34.39141 -6.96624,34.39141 0,0 -29.46193,25.39889 -29.46193,25.39889 0,0 5.80857,-33.73688 5.80857,-33.73688"
       id="path6039" /><path
       inkscape:connector-curvature="0"
       style="fill:#e4e400;fill-opacity:1;stroke:#0a0a00;stroke-width:1;stroke-linecap:butt;stroke-linejoin:miter;stroke-miterlimit:4;stroke-opacity:1;stroke-dashoffset:0"
       d="m 232.515,668.01802 c 0,0 31.40701,-26.7234 31.40701,-26.7234 0,0 -5.75064,33.70391 -5.75064,33.70391 0,0 -30.18854,26.02529 -30.18854,26.02529 0,0 4.53217,-33.0058 4.53217,-33.0058"
       id="path6037" /><path
       inkscape:connector-curvature="0"
       style="fill:#e4e400;fill-opacity:1;stroke:#0a0a00;stroke-width:1;stroke-linecap:butt;stroke-linejoin:miter;stroke-miterlimit:4;stroke-opacity:1;stroke-dashoffset:0"
       d="m 272.15787,600.95812 c 0,0 31.95116,-26.7695 31.95116,-26.7695 0,0 -7.61121,37.57555 -7.61121,37.57555 0,0 -30.69313,26.094 -30.69313,26.094 0,0 6.35318,-36.90005 6.35318,-36.90005"
       id="path6031" /><path
       inkscape:connector-curvature="0"
       style="fill:#e4e400;fill-opacity:1;stroke:#0a0a00;stroke-width:1;stroke-linecap:butt;stroke-linejoin:miter;stroke-miterlimit:4;stroke-opacity:1;stroke-dashoffset:0"
       d="m 237.76674,629.7719 c 0,0 32.81181,-27.49058 32.81181,-27.49058 0,0 -6.29015,36.86593 -6.29015,36.86593 0,0 -31.48449,26.76678 -31.48449,26.76678 0,0 4.96283,-36.14213 4.96283,-36.14213"
       id="path6029" /><path
       inkscape:connector-curvature="0"
       style="fill:#e4e400;fill-opacity:1;stroke:#0a0a00;stroke-width:1;stroke-linecap:butt;stroke-linejoin:miter;stroke-miterlimit:4;stroke-opacity:1;stroke-dashoffset:0"
       d="m 259.30394,675.6153 c 0,0 29.39754,-25.36162 29.39754,-25.36162 0,0 -6.40145,31.6031 -6.40145,31.6031 0,0 -28.32848,24.72973 -28.32848,24.72973 0,0 5.33239,-30.97121 5.33239,-30.97121"
       id="path6023" /><path
       inkscape:connector-curvature="0"
       style="fill:#e4e400;fill-opacity:1;stroke:#0a0a00;stroke-width:1;stroke-linecap:butt;stroke-linejoin:miter;stroke-miterlimit:4;stroke-opacity:1;stroke-dashoffset:0"
       d="m 227.73164,702.85311 c 0,0 30.12084,-25.98562 30.12084,-25.98562 0,0 -5.27896,30.93945 -5.27896,30.93945 0,0 -28.99812,25.31431 -28.99812,25.31431 0,0 4.15624,-30.26814 4.15624,-30.26814"
       id="path6021" /><path
       inkscape:connector-curvature="0"
       style="fill:#e4e400;fill-opacity:1;stroke:#0a0a00;stroke-width:1;stroke-linecap:butt;stroke-linejoin:miter;stroke-miterlimit:4;stroke-opacity:1;stroke-dashoffset:0"
       d="m 195.3731,730.76924 c 0,0 30.87116,-26.63294 30.87116,-26.63294 0,0 -4.10013,30.23439 -4.10013,30.23439 0,0 -29.69177,25.91985 -29.69177,25.91985 0,0 2.92074,-29.5213 2.92074,-29.5213"
       id="path6019" /><path
       inkscape:connector-curvature="0"
       style="fill:#e4e400;fill-opacity:1;stroke:#0a0a00;stroke-width:1;stroke-linecap:butt;stroke-linejoin:miter;stroke-miterlimit:4;stroke-opacity:1;stroke-dashoffset:0"
       d="m 248.48947,738.42708 c 0,0 27.2235,-24.05082 27.2235,-24.05082 0,0 -5.45999,26.95522 -5.45999,26.95522 0,0 -26.30378,23.46604 -26.30378,23.46604 0,0 4.54027,-26.37044 4.54027,-26.37044"
       id="path6015" /><path
       inkscape:connector-curvature="0"
       style="fill:#e4e400;fill-opacity:1;stroke:#0a0a00;stroke-width:1;stroke-linecap:butt;stroke-linejoin:miter;stroke-miterlimit:4;stroke-opacity:1;stroke-dashoffset:0"
       d="m 219.30661,764.20892 c 0,0 27.84001,-24.59549 27.84001,-24.59549 0,0 -4.49439,26.34114 -4.49439,26.34114 0,0 -26.87787,23.97819 -26.87787,23.97819 0,0 3.53225,-25.72384 3.53225,-25.72384"
       id="path6013" /><path
       inkscape:connector-curvature="0"
       style="fill:#e4e400;fill-opacity:1;stroke:#0a0a00;stroke-width:1;stroke-linecap:butt;stroke-linejoin:miter;stroke-miterlimit:4;stroke-opacity:1;stroke-dashoffset:0"
       d="m 189.45549,790.58118 c 0,0 28.47769,-25.15885 28.47769,-25.15885 0,0 -3.48424,25.69289 -3.48424,25.69289 0,0 -27.47096,24.50729 -27.47096,24.50729 0,0 2.47751,-25.04133 2.47751,-25.04133"
       id="path6011" /><path
       inkscape:connector-curvature="0"
       style="fill:#e4e400;fill-opacity:1;stroke:#0a0a00;stroke-width:1;stroke-linecap:butt;stroke-linejoin:miter;stroke-miterlimit:4;stroke-opacity:1;stroke-dashoffset:0"
       d="m 253.69087,708.2167 c 0,0 28.27206,-24.6957 28.27206,-24.6957 0,0 -5.90401,29.14734 -5.90401,29.14734 0,0 -27.28166,24.08721 -27.28166,24.08721 0,0 4.91361,-28.53885 4.91361,-28.53885"
       id="path6007" /><path
       inkscape:connector-curvature="0"
       style="fill:#e4e400;fill-opacity:1;stroke:#0a0a00;stroke-width:1;stroke-linecap:butt;stroke-linejoin:miter;stroke-miterlimit:4;stroke-opacity:1;stroke-dashoffset:0"
       d="m 223.35674,734.71363 c 0,0 28.93892,-25.27821 28.93892,-25.27821 0,0 -4.86415,28.50831 -4.86415,28.50831 0,0 -27.9009,24.63394 -27.9009,24.63394 0,0 3.82613,-27.86404 3.82613,-27.86404"
       id="path6005" /><path
       inkscape:connector-curvature="0"
       style="fill:#e4e400;fill-opacity:1;stroke:#0a0a00;stroke-width:1;stroke-linecap:butt;stroke-linejoin:miter;stroke-miterlimit:4;stroke-opacity:1;stroke-dashoffset:0"
       d="m 192.29877,761.84287 c 0,0 29.62966,-25.88157 29.62966,-25.88157 0,0 -3.77429,27.8317 -3.77429,27.8317 0,0 -28.54147,25.19951 -28.54147,25.19951 0,0 2.6861,-27.14964 2.6861,-27.14964"
       id="path6003" /><path
       style="fill:#e4e400;fill-opacity:1;stroke:#0a0a00;stroke-width:1;stroke-linecap:butt;stroke-linejoin:miter;stroke-miterlimit:4;stroke-opacity:1;stroke-dashoffset:0"
       d="m 271.23566,741.60468 23.58788,-23.53057 -6.46562,27.93104 -22.2298,20.63962 5.10754,-25.04009"
       id="path6001"
       inkscape:connector-curvature="0"
       sodipodi:nodetypes="ccccc" /><path
       inkscape:connector-curvature="0"
       style="fill:#e4e400;fill-opacity:1;stroke:#0a0a00;stroke-width:1;stroke-linecap:butt;stroke-linejoin:miter;stroke-miterlimit:4;stroke-opacity:1;stroke-dashoffset:0"
       d="m 243.71278,766.17068 c 0,0 26.25578,-23.43502 26.25578,-23.43502 0,0 -5.06666,25.01339 -5.06666,25.01339 0,0 -25.39907,22.87354 -25.39907,22.87354 0,0 4.20995,-24.45191 4.20995,-24.45191"
       id="path5999" /><path
       inkscape:connector-curvature="0"
       style="fill:#e4e400;fill-opacity:1;stroke:#0a0a00;stroke-width:1;stroke-linecap:butt;stroke-linejoin:miter;stroke-miterlimit:4;stroke-opacity:1;stroke-dashoffset:0"
       d="m 215.59051,791.27167 c 0,0 26.8277,-23.9455 26.8277,-23.9455 0,0 -4.16725,24.42382 -4.16725,24.42382 0,0 -25.93302,23.35439 -25.93302,23.35439 0,0 3.27257,-23.83271 3.27257,-23.83271"
       id="path5997" /><path
       inkscape:connector-curvature="0"
       style="fill:#e4e400;fill-opacity:1;stroke:#0a0a00;stroke-width:1;stroke-linecap:butt;stroke-linejoin:miter;stroke-miterlimit:4;stroke-opacity:1;stroke-dashoffset:0"
       d="m 186.84909,816.9253 c 0,0 27.4185,-24.47283 27.4185,-24.47283 0,0 -3.22797,23.80312 -3.22797,23.80312 0,0 -26.48397,23.85056 -26.48397,23.85056 0,0 2.29344,-23.18085 2.29344,-23.18085"
       id="path5995" /><path
       style="fill:#e4e400;fill-opacity:1;stroke:#0a0a00;stroke-width:1;stroke-linecap:butt;stroke-linejoin:miter;stroke-miterlimit:4;stroke-opacity:1;stroke-dashoffset:0"
       d="m 260.82595,792.639 22.88895,-21.83514 -5.02369,23.60575 -22.2964,19.95337 4.43114,-21.72398"
       id="path5993"
       inkscape:connector-curvature="0"
       sodipodi:nodetypes="ccccc" /><path
       inkscape:connector-curvature="0"
       style="fill:#e4e400;fill-opacity:1;stroke:#0a0a00;stroke-width:1;stroke-linecap:butt;stroke-linejoin:miter;stroke-miterlimit:4;stroke-opacity:1;stroke-dashoffset:0"
       d="m 235.13574,815.98721 c 0,0 24.50663,-22.27253 24.50663,-22.27253 0,0 -4.39537,21.69937 -4.39537,21.69937 0,0 -23.75839,21.75609 -23.75839,21.75609 0,0 3.64713,-21.18293 3.64713,-21.18293"
       id="path5991" /><path
       inkscape:connector-curvature="0"
       style="fill:#e4e400;fill-opacity:1;stroke:#0a0a00;stroke-width:1;stroke-linecap:butt;stroke-linejoin:miter;stroke-miterlimit:4;stroke-opacity:1;stroke-dashoffset:0"
       d="m 208.92581,839.80774 c 0,0 25.0025,-22.72318 25.0025,-22.72318 0,0 -3.60988,21.15714 -3.60988,21.15714 0,0 -24.22348,22.18198 -24.22348,22.18198 0,0 2.83086,-20.61594 2.83086,-20.61594"
       id="path5989" /><path
       inkscape:connector-curvature="0"
       style="fill:#e4e400;fill-opacity:1;stroke:#0a0a00;stroke-width:1;stroke-linecap:butt;stroke-linejoin:miter;stroke-miterlimit:4;stroke-opacity:1;stroke-dashoffset:0"
       d="m 182.18028,864.11506 c 0,0 25.51356,-23.18766 25.51356,-23.18766 0,0 -2.79209,20.58892 -2.79209,20.58892 0,0 -24.70236,22.6205 -24.70236,22.6205 0,0 1.98089,-20.02176 1.98089,-20.02176"
       id="path5987" /><path
       style="fill:#e4e400;fill-opacity:1;stroke:#0a0a00;stroke-width:1;stroke-linecap:butt;stroke-linejoin:miter;stroke-miterlimit:4;stroke-opacity:1;stroke-dashoffset:0"
       d="m 265.85791,767.96945 22.31255,-20.61092 -4.25691,22.42247 -22.80795,21.48698 4.75231,-23.29853"
       id="path5985"
       inkscape:connector-curvature="0"
       sodipodi:nodetypes="ccccc" /><path
       inkscape:connector-curvature="0"
       style="fill:#e4e400;fill-opacity:1;stroke:#0a0a00;stroke-width:1;stroke-linecap:butt;stroke-linejoin:miter;stroke-miterlimit:4;stroke-opacity:1;stroke-dashoffset:0"
       d="m 239.2802,791.91566 c 0,0 25.35367,-22.84336 25.35367,-22.84336 0,0 -4.7141,23.27289 -4.7141,23.27289 0,0 -24.55378,22.30469 -24.55378,22.30469 0,0 3.91421,-22.73422 3.91421,-22.73422"
       id="path5983" /><path
       inkscape:connector-curvature="0"
       style="fill:#e4e400;fill-opacity:1;stroke:#0a0a00;stroke-width:1;stroke-linecap:butt;stroke-linejoin:miter;stroke-miterlimit:4;stroke-opacity:1;stroke-dashoffset:0"
       d="m 212.14495,816.3642 c 0,0 25.88564,-23.32266 25.88564,-23.32266 0,0 -3.87437,22.7073 -3.87437,22.7073 0,0 -25.05162,22.75692 -25.05162,22.75692 0,0 3.04035,-22.14156 3.04035,-22.14156"
       id="path5981" /><path
       inkscape:connector-curvature="0"
       style="fill:#e4e400;fill-opacity:1;stroke:#0a0a00;stroke-width:1;stroke-linecap:butt;stroke-linejoin:miter;stroke-miterlimit:4;stroke-opacity:1;stroke-dashoffset:0"
       d="m 184.43447,841.33102 c 0,0 26.43452,-23.81719 26.43452,-23.81719 0,0 -2.99881,22.11328 -2.99881,22.11328 0,0 -25.56475,23.22305 -25.56475,23.22305 0,0 2.12904,-21.51914 2.12904,-21.51914"
       id="path5979" /><path
       style="fill:#e4e400;fill-opacity:1;stroke:#0a0a00;stroke-width:1;stroke-linecap:butt;stroke-linejoin:miter;stroke-miterlimit:4;stroke-opacity:1;stroke-dashoffset:0"
       d="m 256.14676,815.57902 22.50862,-21.06181 -4.56463,21.41242 -22.08624,19.95709 4.14225,-20.3077"
       id="path5977"
       inkscape:connector-curvature="0"
       sodipodi:nodetypes="ccccc" /><path
       inkscape:connector-curvature="0"
       style="fill:#e4e400;fill-opacity:1;stroke:#0a0a00;stroke-width:1;stroke-linecap:butt;stroke-linejoin:miter;stroke-miterlimit:4;stroke-opacity:1;stroke-dashoffset:0"
       d="m 231.28453,838.35549 c 0,0 23.71643,-21.72679 23.71643,-21.72679 0,0 -4.10869,20.28409 -4.10869,20.28409 0,0 -23.01487,21.2317 -23.01487,21.2317 0,0 3.40713,-19.789 3.40713,-19.789"
       id="path5975" /><path
       inkscape:connector-curvature="0"
       style="fill:#e4e400;fill-opacity:1;stroke:#0a0a00;stroke-width:1;stroke-linecap:butt;stroke-linejoin:miter;stroke-miterlimit:4;stroke-opacity:1;stroke-dashoffset:0"
       d="m 205.9366,861.57691 c 0,0 24.17983,-22.15131 24.17983,-22.15131 0,0 -3.37223,19.7643 -3.37223,19.7643 0,0 -23.45042,21.63351 -23.45042,21.63351 0,0 2.64282,-19.2465 2.64282,-19.2465"
       id="path5973" /><path
       inkscape:connector-curvature="0"
       style="fill:#e4e400;fill-opacity:1;stroke:#0a0a00;stroke-width:1;stroke-linecap:butt;stroke-linejoin:miter;stroke-miterlimit:4;stroke-opacity:1;stroke-dashoffset:0"
       d="m 180.08862,885.25642 c 0,0 24.65695,-22.5884 24.65695,-22.5884 0,0 -2.60654,19.22067 -2.60654,19.22067 0,0 -23.89846,22.04683 -23.89846,22.04683 0,0 1.84805,-18.6791 1.84805,-18.6791"
       id="path5971" /><path
       inkscape:connector-curvature="0"
       style="fill:#e4e400;fill-opacity:1;stroke:#0a0a00;stroke-width:1;stroke-linecap:butt;stroke-linejoin:miter;stroke-miterlimit:4;stroke-opacity:1;stroke-dashoffset:0"
       d="m 247.67393,857.11766 c 0,0 21.88287,-20.33367 21.88287,-20.33367 0,0 -4.24151,18.29773 -4.24151,18.29773 0,0 -21.28457,19.89705 -21.28457,19.89705 0,0 3.64321,-17.86111 3.64321,-17.86111"
       id="path5969" /><path
       inkscape:connector-curvature="0"
       style="fill:#e4e400;fill-opacity:1;stroke:#0a0a00;stroke-width:1;stroke-linecap:butt;stroke-linejoin:miter;stroke-miterlimit:4;stroke-opacity:1;stroke-dashoffset:0"
       d="m 224.31756,878.82052 c 0,0 22.27934,-20.70208 22.27934,-20.70208 0,0 -3.61349,17.83937 -3.61349,17.83937 0,0 -21.65896,20.24702 -21.65896,20.24702 0,0 2.99311,-17.38431 2.99311,-17.38431"
       id="path5967" /><path
       inkscape:connector-curvature="0"
       style="fill:#e4e400;fill-opacity:1;stroke:#0a0a00;stroke-width:1;stroke-linecap:butt;stroke-linejoin:miter;stroke-miterlimit:4;stroke-opacity:1;stroke-dashoffset:0"
       d="m 200.53421,900.92013 c 0,0 22.6867,-21.0806 22.6867,-21.0806 0,0 -2.96229,17.36164 -2.96229,17.36164 0,0 -22.04328,20.6063 -22.04328,20.6063 0,0 2.31887,-16.88734 2.31887,-16.88734"
       id="path5965" /><path
       inkscape:connector-curvature="0"
       style="fill:#e4e400;fill-opacity:1;stroke:#0a0a00;stroke-width:1;stroke-linecap:butt;stroke-linejoin:miter;stroke-miterlimit:4;stroke-opacity:1;stroke-dashoffset:0"
       d="m 176.31211,923.42743 c 0,0 23.10532,-21.46958 23.10532,-21.46958 0,0 -2.28692,16.86373 -2.28692,16.86373 0,0 -22.43794,20.97522 -22.43794,20.97522 0,0 1.61954,-16.36937 1.61954,-16.36937"
       id="path5963" /><path
       style="fill:#e4e400;fill-opacity:1;stroke:#0a0a00;stroke-width:1;stroke-linecap:butt;stroke-linejoin:miter;stroke-miterlimit:4;stroke-opacity:1;stroke-dashoffset:0"
       d="m 251.78457,836.96497 22.17661,-20.68925 -4.13762,19.35749 -21.92044,20.36084 3.88145,-19.02908"
       id="path5961"
       inkscape:connector-curvature="0"
       sodipodi:nodetypes="ccccc" /><path
       inkscape:connector-curvature="0"
       style="fill:#e4e400;fill-opacity:1;stroke:#0a0a00;stroke-width:1;stroke-linecap:butt;stroke-linejoin:miter;stroke-miterlimit:4;stroke-opacity:1;stroke-dashoffset:0"
       d="m 227.69656,859.19487 c 0,0 22.97756,-21.20511 22.97756,-21.20511 0,0 -3.84989,19.00642 -3.84989,19.00642 0,0 -22.31833,20.73042 -22.31833,20.73042 0,0 3.19066,-18.53173 3.19066,-18.53173"
       id="path5959" /><path
       inkscape:connector-curvature="0"
       style="fill:#e4e400;fill-opacity:1;stroke:#0a0a00;stroke-width:1;stroke-linecap:butt;stroke-linejoin:miter;stroke-miterlimit:4;stroke-opacity:1;stroke-dashoffset:0"
       d="m 203.15354,881.84466 c 0,0 23.41167,-21.60571 23.41167,-21.60571 0,0 -3.15789,18.50807 -3.15789,18.50807 0,0 -22.72715,21.11016 -22.72715,21.11016 0,0 2.47337,-18.01252 2.47337,-18.01252"
       id="path5957" /><path
       inkscape:connector-curvature="0"
       style="fill:#e4e400;fill-opacity:1;stroke:#0a0a00;stroke-width:1;stroke-linecap:butt;stroke-linejoin:miter;stroke-miterlimit:4;stroke-opacity:1;stroke-dashoffset:0"
       d="m 178.14254,904.92635 c 0,0 23.85818,-22.01779 23.85818,-22.01779 0,0 -2.43935,17.98781 -2.43935,17.98781 0,0 -23.14729,21.50041 -23.14729,21.50041 0,0 1.72846,-17.47043 1.72846,-17.47043"
       id="rect3773-4-22-1-8" /><path
       inkscape:connector-curvature="0"
       id="path6062-1"
       d="m 205.08639,603.64356 32.02197,24.57021 5.56834,-39.27814 -36.07801,-25.10137 -1.5123,39.77775"
       style="fill:#e4e400;fill-opacity:1;stroke:#0a0a00;stroke-width:1.06146502;stroke-linecap:butt;stroke-linejoin:miter;stroke-miterlimit:4;stroke-opacity:1;stroke-dashoffset:0"
       sodipodi:nodetypes="ccccc" /><path
       inkscape:connector-curvature="0"
       id="path6102"
       d="m 167.63189,738.95062 24.18114,21.55095 2.80586,-29.83895 -27.22975,-23.78817 0.24275,31.88642"
       style="fill:#e4e400;fill-opacity:1;stroke:#0a0a00;stroke-width:0.79756248;stroke-linecap:butt;stroke-linejoin:miter;stroke-miterlimit:4;stroke-opacity:1;stroke-dashoffset:0"
       sodipodi:nodetypes="ccccc" /><path
       inkscape:connector-curvature="0"
       id="path6102-5"
       d="m 167.59221,769.87477 21.47847,19.53429 2.93772,-27.58244 -24.46322,-21.6328 0.047,29.50895"
       style="fill:#e4e400;fill-opacity:1;stroke:#0a0a00;stroke-width:0.71563834;stroke-linecap:butt;stroke-linejoin:miter;stroke-miterlimit:4;stroke-opacity:1;stroke-dashoffset:0"
       sodipodi:nodetypes="ccccc" /><path
       inkscape:connector-curvature="0"
       id="path6102-5-9"
       d="m 167.4109,798.15385 19.05435,17.73836 2.68322,-25.3041 -21.86839,-19.97895 0.13079,27.38299"
       style="fill:#e4e400;fill-opacity:1;stroke:#0a0a00;stroke-width:0.65199816;stroke-linecap:butt;stroke-linejoin:miter;stroke-miterlimit:4;stroke-opacity:1;stroke-dashoffset:0"
       sodipodi:nodetypes="ccccc" /><path
       inkscape:connector-curvature="0"
       id="path6102-5-9-8"
       d="m 167.27742,823.83726 16.84891,16.64194 2.37265,-23.74003 -19.33724,-18.11902 0.11566,25.06541"
       style="fill:#e4e400;fill-opacity:1;stroke:#0a0a00;stroke-width:0.59385496;stroke-linecap:butt;stroke-linejoin:miter;stroke-miterlimit:4;stroke-opacity:1;stroke-dashoffset:0"
       sodipodi:nodetypes="ccccc" /><path
       inkscape:connector-curvature="0"
       id="path6102-5-9-8-4"
       d="m 167.19584,848.75853 14.78811,14.02023 1.99316,-21.71765 -16.8828,-16.7941 0.10152,24.34419"
       style="fill:#e4e400;fill-opacity:1;stroke:#0a0a00;stroke-width:0.54829091;stroke-linecap:butt;stroke-linejoin:miter;stroke-miterlimit:4;stroke-opacity:1;stroke-dashoffset:0"
       sodipodi:nodetypes="ccccc" /><path
       inkscape:connector-curvature="0"
       id="path6102-5-9-8-4-0"
       d="m 166.95548,871.11883 13.35407,12.87725 1.60535,-20.51927 -14.74298,-14.28659 -0.21609,22.0462"
       style="fill:#e4e400;fill-opacity:1;stroke:#0a0a00;stroke-width:0.49927756;stroke-linecap:butt;stroke-linejoin:miter;stroke-miterlimit:4;stroke-opacity:1;stroke-dashoffset:0"
       sodipodi:nodetypes="ccccc" /><path
       inkscape:connector-curvature="0"
       id="path6102-5-9-8-4-0-7"
       d="m 166.70264,892.20306 12.03623,12.1442 1.32065,-19.98255 -13.1618,-12.84197 -0.19477,20.79121"
       style="fill:#e4e400;fill-opacity:1;stroke:#0a0a00;stroke-width:0.46031323;stroke-linecap:butt;stroke-linejoin:miter;stroke-miterlimit:4;stroke-opacity:1;stroke-dashoffset:0"
       sodipodi:nodetypes="ccccc" /><path
       inkscape:connector-curvature="0"
       id="path6102-5-9-8-4-0-7-6"
       d="m 166.48438,911.6736 10.04011,11.13779 1.2279,-18.83164 -11.10528,-11.27266 -0.16247,19.06821"
       style="fill:#e4e400;fill-opacity:1;stroke:#0a0a00;stroke-width:0.40261722;stroke-linecap:butt;stroke-linejoin:miter;stroke-miterlimit:4;stroke-opacity:1;stroke-dashoffset:0"
       sodipodi:nodetypes="ccccc" /><path
       inkscape:connector-curvature="0"
       id="path6102-5-9-8-4-0-7-6-3"
       d="m 166.39234,931.70104 7.62047,8.9432 2.19012,-17.80928 -9.6835,-10.58508 -0.12689,19.42038"
       style="fill:#e4e400;fill-opacity:1;stroke:#0a0a00;stroke-width:0.34479046;stroke-linecap:butt;stroke-linejoin:miter;stroke-miterlimit:4;stroke-opacity:1;stroke-dashoffset:0"
       sodipodi:nodetypes="ccccc" /><path
       style="fill:#e4e400;fill-opacity:1;stroke:#0a0a00;stroke-width:2;stroke-linecap:butt;stroke-linejoin:miter;stroke-miterlimit:4;stroke-opacity:1;stroke-dasharray:none;stroke-dashoffset:0"
       d="m 206.59231,563.60602 38.07593,-25.95019 33.19236,20.93664 -35.11373,29.19335 z"
       id="rect3773-4-22-1-8-9-6"
       inkscape:connector-curvature="0"
       sodipodi:nodetypes="ccccc" /><path
       sodipodi:nodetypes="cc"
       inkscape:connector-curvature="0"
       id="path6341"
       d="M 304.28946,574.09483 277.97732,559.27964"
       style="fill:#e4e400;fill-opacity:1;stroke:#000000;stroke-width:0.82189137px;stroke-linecap:butt;stroke-linejoin:miter;stroke-opacity:1" /><path
       sodipodi:nodetypes="ccccc"
       style="fill:#e4e400;fill-opacity:1;stroke:#0a0a00;stroke-width:0.88607907;stroke-linecap:butt;stroke-linejoin:miter;stroke-miterlimit:4;stroke-opacity:1;stroke-dashoffset:0"
       d="m 203.98157,642.16142 28.54833,23.78085 4.5626,-36.19573 -32.2207,-24.3573 -0.71166,36.75236"
       id="path6100-0"
       inkscape:connector-curvature="0" /><path
       style="fill:#e4e400;fill-opacity:1;stroke:#000000;stroke-width:1.60000002;stroke-linecap:butt;stroke-linejoin:miter;stroke-miterlimit:4;stroke-opacity:1;stroke-dasharray:none"
       d="m 271.25,740.39789 23.46125,-22.95092 -17.29419,-10.60781"
       id="path6374"
       inkscape:connector-curvature="0"
       sodipodi:nodetypes="ccc" /><path
       sodipodi:nodetypes="ccccc"
       style="fill:#e4e400;fill-opacity:1;stroke:#0a0a00;stroke-width:0.84763855;stroke-linecap:butt;stroke-linejoin:miter;stroke-miterlimit:4;stroke-opacity:1;stroke-dashoffset:0"
       d="m 202.56525,680.39874 24.55463,21.66072 5.06538,-34.45152 -28.27445,-23.86095 -1.17697,36.50626"
       id="path6100-0-9"
       inkscape:connector-curvature="0" /><path
       style="fill:#e4e400;fill-opacity:1;stroke:#000000;stroke-width:1.00462675px;stroke-linecap:butt;stroke-linejoin:miter;stroke-opacity:1"
       d="m 201.89597,681.86449 -34.39366,24.37269 27.8664,24.37269 30.87898,-27.1366 z"
       id="path6886"
       inkscape:connector-curvature="0" /><path
       style="fill:#e4e400;fill-opacity:1;stroke:#000000;stroke-width:2;stroke-linecap:butt;stroke-linejoin:miter;stroke-miterlimit:4;stroke-opacity:1;stroke-dasharray:none"
       d="m 304.5,161 -26.25,-14 -7.5,41.75 z"
       id="path6888"
       inkscape:connector-curvature="0"
       transform="translate(0,412.36218)"
       sodipodi:nodetypes="cccc" /></g></g></svg>